<svg width="20" height="20" viewBox="0 0 20 20" fill="none" xmlns="http://www.w3.org/2000/svg">
<path fill-rule="evenodd" clip-rule="evenodd" d="M4.81694 0.183058C4.69973 0.065848 4.54076 0 4.375 0C4.20924 0 4.05027 0.065848 3.93306 0.183058C3.81585 0.300269 3.75 0.45924 3.75 0.625V1.25H2.5C1.83696 1.25 1.20107 1.51339 0.732233 1.98223C0.263392 2.45107 0 3.08696 0 3.75V17.5C0 18.163 0.263392 18.7989 0.732233 19.2678C1.20107 19.7366 1.83696 20 2.5 20H17.5C18.163 20 18.7989 19.7366 19.2678 19.2678C19.7366 18.7989 20 18.163 20 17.5V3.75C20 3.08696 19.7366 2.45107 19.2678 1.98223C18.7989 1.51339 18.163 1.25 17.5 1.25H16.25V0.625C16.25 0.45924 16.1842 0.300269 16.0669 0.183058C15.9497 0.065848 15.7908 0 15.625 0C15.4592 0 15.3003 0.065848 15.1831 0.183058C15.0658 0.300269 15 0.45924 15 0.625V1.25H5V0.625C5 0.45924 4.93415 0.300269 4.81694 0.183058ZM1.25 11.25L1.25 5H18.75V17.5C18.75 17.8315 18.6183 18.1495 18.3839 18.3839C18.1495 18.6183 17.8315 18.75 17.5 18.75H2.5C2.16848 18.75 1.85054 18.6183 1.61612 18.3839C1.3817 18.1495 1.25 17.8315 1.25 17.5L1.25 13.75H6.25C6.58152 13.75 6.89946 13.6183 7.13388 13.3839C7.3683 13.1495 7.5 12.8315 7.5 12.5C7.5 12.1685 7.3683 11.8505 7.13388 11.6161C6.89946 11.3817 6.58152 11.25 6.25 11.25H1.25ZM11.6161 7.86612C11.3817 8.10054 11.25 8.41848 11.25 8.75C11.25 9.08152 11.3817 9.39946 11.6161 9.63388C11.8505 9.8683 12.1685 10 12.5 10H18.75V7.5H12.5C12.1685 7.5 11.8505 7.6317 11.6161 7.86612Z" fill="#C1C1C1"/>
</svg>
