<svg width="20" height="20" viewBox="0 0 20 20" fill="none" xmlns="http://www.w3.org/2000/svg">
<path fill-rule="evenodd" clip-rule="evenodd" d="M4.61539 17.1429L4.61539 2.85714C4.61539 2.09938 4.93956 1.37265 5.51659 0.836836C6.09363 0.301018 6.87626 -1.90735e-06 7.69231 -1.90735e-06L12.3077 -1.90735e-06C13.1237 -1.90735e-06 13.9064 0.301018 14.4834 0.836836C15.0604 1.37265 15.3846 2.09938 15.3846 2.85714L15.3846 17.1429C15.3846 17.9006 15.0604 18.6273 14.4834 19.1632C13.9064 19.699 13.1237 20 12.3077 20L7.69231 20C6.87626 20 6.09363 19.699 5.51659 19.1632C4.93956 18.6273 4.61539 17.9006 4.61539 17.1429ZM6.15385 17.1429C6.15385 17.5217 6.31594 17.8851 6.60445 18.153C6.89297 18.4209 7.28428 18.5714 7.69231 18.5714L12.3077 18.5714C12.7157 18.5714 13.107 18.4209 13.3956 18.153C13.6841 17.8851 13.8462 17.5217 13.8462 17.1429L13.8462 2.85714C13.8462 2.47826 13.6841 2.1149 13.3956 1.84699C13.107 1.57908 12.7157 1.42857 12.3077 1.42857L7.69231 1.42857C7.28428 1.42857 6.89297 1.57908 6.60445 1.84699C6.31594 2.1149 6.15385 2.47826 6.15385 2.85714L6.15385 17.1429ZM0.769231 20C0.565218 20 0.369561 19.9247 0.225302 19.7908C0.0810437 19.6568 0 19.4752 0 19.2857L0 0.714283C0 0.524841 0.0810437 0.343161 0.225302 0.209206C0.369561 0.0752506 0.565218 -1.90735e-06 0.769231 -1.90735e-06C0.973244 -1.90735e-06 1.1689 0.0752506 1.31316 0.209206C1.45742 0.343161 1.53846 0.524841 1.53846 0.714283L1.53846 19.2857C1.53846 19.4752 1.45742 19.6568 1.31316 19.7908C1.1689 19.9247 0.973244 20 0.769231 20ZM19.2308 20C19.0268 20 18.8311 19.9247 18.6868 19.7908C18.5426 19.6568 18.4615 19.4752 18.4615 19.2857L18.4615 0.714283C18.4615 0.524841 18.5426 0.343161 18.6868 0.209206C18.8311 0.0752506 19.0268 -1.90735e-06 19.2308 -1.90735e-06C19.4348 -1.90735e-06 19.6304 0.0752506 19.7747 0.209206C19.919 0.343161 20 0.524841 20 0.714283L20 19.2857C20 19.4752 19.919 19.6568 19.7747 19.7908C19.6304 19.9247 19.4348 20 19.2308 20Z" fill="#33BDE4"/>
</svg>
